<svg xmlns="http://www.w3.org/2000/svg" width="1200" height="680" viewBox="0 0 1200 680" font-family="Arial, Helvetica, sans-serif">
<rect width="1200" height="680" fill="#ffffff"/>
<ellipse cx="144" cy="578" rx="216" ry="68" fill="#faf3e3" transform="rotate(-35 144 578)"/>
<ellipse cx="1056" cy="95.2" rx="216" ry="68" fill="#faf3e3" transform="rotate(-35 1056 95.2)"/>
<ellipse cx="192" cy="237.99999999999997" rx="192" ry="61.199999999999996" fill="#e4efe4" transform="rotate(-35 192 237.99999999999997)"/>
<ellipse cx="1032" cy="462.40000000000003" rx="192" ry="61.199999999999996" fill="#e4efe4" transform="rotate(-35 1032 462.40000000000003)"/>

<rect x="225" y="52" width="750" height="570" rx="14" fill="#ffffff" stroke="#8b8ff0" stroke-width="2"/>
<rect x="243" y="70" width="714" height="534" fill="none" stroke="#1d5c3f" stroke-width="3"/>
<text x="600" y="150" text-anchor="middle" font-size="34" font-weight="bold" fill="#1d5c3f">IAPP</text>
<text x="600" y="176" text-anchor="middle" font-size="11" letter-spacing="2" fill="#777">INTERNATIONAL ASSOCIATION OF PRIVACY PROFESSIONALS</text>
<text x="600" y="240" text-anchor="middle" font-size="15" letter-spacing="4" fill="#555">CERTIFICATE</text>
<text x="600" y="282" text-anchor="middle" font-size="12" font-style="italic" fill="#555">This is to certify that</text>
<text x="600" y="322" text-anchor="middle" font-size="30" fill="#111" font-family="Georgia, serif">Morgan Blake</text>
<text x="600" y="356" text-anchor="middle" font-size="12" font-style="italic" fill="#555">has successfully completed all requirements and is recognised as</text>
<text text-anchor="middle" font-size="21" font-weight="bold" fill="#1d5c3f"><tspan x="600" y="394">Artificial Intelligence</tspan><tspan x="600" y="421">Governance Professional (AIGP)</tspan></text>
<text x="600" y="468" text-anchor="middle" font-size="12" fill="#333">Awarded on May 1, 2026 • Credential ID 0000000</text>
<line x1="330" y1="540" x2="470" y2="540" stroke="#555" stroke-width="1"/>
<text x="400" y="556" text-anchor="middle" font-size="10" fill="#333">Authorized Signatory, IAPP</text>
<line x1="730" y1="540" x2="870" y2="540" stroke="#555" stroke-width="1"/>
<text x="800" y="556" text-anchor="middle" font-size="10" fill="#333">Program Director</text>
<text x="600" y="588" text-anchor="middle" font-size="8.5" fill="#9a9a9a">*This certificate is for representative purpose only and holds no official or legal value.</text>
</svg>