<svg xmlns="http://www.w3.org/2000/svg" width="1200" height="680" viewBox="0 0 1200 680" font-family="Arial, Helvetica, sans-serif">
<rect width="1200" height="680" fill="#ffffff"/>
<ellipse cx="144" cy="578" rx="216" ry="68" fill="#faf3e3" transform="rotate(-35 144 578)"/>
<ellipse cx="1056" cy="95.2" rx="216" ry="68" fill="#faf3e3" transform="rotate(-35 1056 95.2)"/>
<ellipse cx="192" cy="237.99999999999997" rx="192" ry="61.199999999999996" fill="#e4efe4" transform="rotate(-35 192 237.99999999999997)"/>
<ellipse cx="1032" cy="462.40000000000003" rx="192" ry="61.199999999999996" fill="#e4efe4" transform="rotate(-35 1032 462.40000000000003)"/>

<rect x="225" y="52" width="750" height="570" rx="14" fill="#ffffff" stroke="#8b8ff0" stroke-width="2"/>
<rect x="243" y="70" width="714" height="534" rx="8" fill="none" stroke="#232f3e" stroke-width="1.5"/>
<g transform="translate(430,120)">
  <text x="0" y="34" font-size="44" font-weight="bold" fill="#232f3e">aws</text>
  <g transform="translate(104,10)"><polygon points="14,0 28,8 28,24 14,32 0,24 0,8" fill="#f79400"/><path d="M 7 16 l 5 5 l 9 -10" stroke="#ffffff" stroke-width="3.5" fill="none"/></g>
  <text x="142" y="34" font-size="44" fill="#232f3e">certified</text>
</g>
<text x="600" y="240" text-anchor="middle" font-size="30" fill="#222">Abram Beil</text>
<text x="600" y="286" text-anchor="middle" font-size="12.5" fill="#333">has successfully completed the AWS Certification</text>
<text x="600" y="304" text-anchor="middle" font-size="12.5" fill="#333">requirements and has achieved their:</text>
<rect x="243" y="336" width="714" height="66" fill="#8a8f98"/>
<text x="600" y="378" text-anchor="middle" font-size="20" font-weight="bold" fill="#ffffff">AWS Certified DevOps Engineer – Professional</text>
<text x="322" y="452" font-size="11.5" font-weight="bold" fill="#111">Issue Date</text>
<text x="322" y="470" font-size="11" fill="#333">May 1, 2026</text>
<text x="322" y="500" font-size="11.5" font-weight="bold" fill="#111">Expiration Date</text>
<text x="322" y="518" font-size="11" fill="#333">May 1, 2029</text>
<text x="690" y="480" font-size="11.5" fill="#111">AWS Training and Certification</text>
<text x="690" y="530" font-size="8.5" fill="#333">Validation Number XXXXXXXXXXXXXXXX</text>
<text x="690" y="544" font-size="8.5" fill="#333">Validate at: http://aws.amazon.com/verification</text>
<text x="600" y="586" text-anchor="middle" font-size="8.5" fill="#9a9a9a">*This certificate is for representative purpose only and holds no official or legal value.</text>
</svg>