<svg xmlns="http://www.w3.org/2000/svg" width="960" height="540" viewBox="0 0 960 540" font-family="Arial, Helvetica, sans-serif">
<rect width="960" height="540" fill="#ffffff"/>
<ellipse cx="115.19999999999999" cy="459" rx="172.79999999999998" ry="54" fill="#faf3e3" transform="rotate(-35 115.19999999999999 459)"/>
<ellipse cx="844.8" cy="75.60000000000001" rx="172.79999999999998" ry="54" fill="#faf3e3" transform="rotate(-35 844.8 75.60000000000001)"/>
<ellipse cx="153.6" cy="189" rx="153.6" ry="48.6" fill="#e4efe4" transform="rotate(-35 153.6 189)"/>
<ellipse cx="825.6" cy="367.20000000000005" rx="153.6" ry="48.6" fill="#e4efe4" transform="rotate(-35 825.6 367.20000000000005)"/>

<rect x="185" y="38" width="590" height="464" rx="12" fill="#ffffff" stroke="#8b8ff0" stroke-width="2"/>
<g clip-path="url(#hd)"><clipPath id="hd"><rect x="193" y="46" width="574" height="110" rx="8"/></clipPath>
  <rect x="193" y="46" width="574" height="110" fill="#0e3a47"/>
  <g transform="translate(173,34)"><rect x="20" y="12" width="7" height="12" rx="1.5" fill="#ffffff" opacity="0.25"/><rect x="40" y="21" width="7" height="12" rx="1.5" fill="#ffffff" opacity="0.25"/><rect x="60" y="30" width="7" height="12" rx="1.5" fill="#ffffff" opacity="0.25"/><rect x="80" y="12" width="7" height="12" rx="1.5" fill="#ffffff" opacity="0.25"/><rect x="100" y="21" width="7" height="12" rx="1.5" fill="#ffffff" opacity="0.25"/><rect x="120" y="30" width="7" height="12" rx="1.5" fill="#ffffff" opacity="0.25"/><rect x="140" y="12" width="7" height="12" rx="1.5" fill="#ffffff" opacity="0.25"/><rect x="160" y="21" width="7" height="12" rx="1.5" fill="#ffffff" opacity="0.25"/><rect x="180" y="30" width="7" height="12" rx="1.5" fill="#ffffff" opacity="0.25"/><rect x="200" y="12" width="7" height="12" rx="1.5" fill="#ffffff" opacity="0.25"/><rect x="220" y="21" width="7" height="12" rx="1.5" fill="#ffffff" opacity="0.25"/><rect x="240" y="30" width="7" height="12" rx="1.5" fill="#ffffff" opacity="0.25"/><rect x="260" y="12" width="7" height="12" rx="1.5" fill="#ffffff" opacity="0.25"/><rect x="280" y="21" width="7" height="12" rx="1.5" fill="#ffffff" opacity="0.25"/><rect x="300" y="30" width="7" height="12" rx="1.5" fill="#ffffff" opacity="0.25"/><rect x="320" y="12" width="7" height="12" rx="1.5" fill="#ffffff" opacity="0.25"/><rect x="340" y="21" width="7" height="12" rx="1.5" fill="#ffffff" opacity="0.25"/><rect x="360" y="30" width="7" height="12" rx="1.5" fill="#ffffff" opacity="0.25"/><rect x="380" y="12" width="7" height="12" rx="1.5" fill="#ffffff" opacity="0.25"/><rect x="400" y="21" width="7" height="12" rx="1.5" fill="#ffffff" opacity="0.25"/><rect x="420" y="30" width="7" height="12" rx="1.5" fill="#ffffff" opacity="0.25"/><rect x="440" y="12" width="7" height="12" rx="1.5" fill="#ffffff" opacity="0.25"/><rect x="460" y="21" width="7" height="12" rx="1.5" fill="#ffffff" opacity="0.25"/><rect x="480" y="30" width="7" height="12" rx="1.5" fill="#ffffff" opacity="0.25"/><rect x="500" y="12" width="7" height="12" rx="1.5" fill="#ffffff" opacity="0.25"/><rect x="520" y="21" width="7" height="12" rx="1.5" fill="#ffffff" opacity="0.25"/><rect x="540" y="30" width="7" height="12" rx="1.5" fill="#ffffff" opacity="0.25"/><rect x="560" y="12" width="7" height="12" rx="1.5" fill="#ffffff" opacity="0.25"/><rect x="580" y="21" width="7" height="12" rx="1.5" fill="#ffffff" opacity="0.25"/><rect x="600" y="30" width="7" height="12" rx="1.5" fill="#ffffff" opacity="0.25"/><rect x="620" y="12" width="7" height="12" rx="1.5" fill="#ffffff" opacity="0.25"/><rect x="640" y="21" width="7" height="12" rx="1.5" fill="#ffffff" opacity="0.25"/><rect x="660" y="30" width="7" height="12" rx="1.5" fill="#ffffff" opacity="0.25"/><rect x="680" y="12" width="7" height="12" rx="1.5" fill="#ffffff" opacity="0.25"/><rect x="700" y="21" width="7" height="12" rx="1.5" fill="#ffffff" opacity="0.25"/><rect x="720" y="30" width="7" height="12" rx="1.5" fill="#ffffff" opacity="0.25"/><rect x="740" y="12" width="7" height="12" rx="1.5" fill="#ffffff" opacity="0.25"/><rect x="760" y="21" width="7" height="12" rx="1.5" fill="#ffffff" opacity="0.25"/><rect x="780" y="30" width="7" height="12" rx="1.5" fill="#ffffff" opacity="0.25"/><rect x="800" y="12" width="7" height="12" rx="1.5" fill="#ffffff" opacity="0.25"/><rect x="820" y="21" width="7" height="12" rx="1.5" fill="#ffffff" opacity="0.25"/><rect x="840" y="30" width="7" height="12" rx="1.5" fill="#ffffff" opacity="0.25"/><rect x="860" y="12" width="7" height="12" rx="1.5" fill="#ffffff" opacity="0.25"/><rect x="880" y="21" width="7" height="12" rx="1.5" fill="#ffffff" opacity="0.25"/><rect x="900" y="30" width="7" height="12" rx="1.5" fill="#ffffff" opacity="0.25"/><rect x="920" y="12" width="7" height="12" rx="1.5" fill="#ffffff" opacity="0.25"/></g>
  <text x="480" y="136" text-anchor="middle" font-size="24" font-weight="bold" fill="#ffffff">Certificate of Completion</text></g>
<text x="480" y="196" text-anchor="middle" font-size="12" fill="#333">This certificate verifies</text>
<text x="480" y="228" text-anchor="middle" font-size="27" fill="#0e6273" font-weight="600">Anthony Kennedy</text>
<text x="480" y="252" text-anchor="middle" font-size="12" fill="#333">has successfully completed the requirements of the</text>
<text text-anchor="middle" font-size="21" font-weight="bold" fill="#111"><tspan x="480" y="288">Advanced Facilitator: Value</tspan><tspan x="480" y="315">Stream Mapping</tspan></text>
<text x="345" y="352" text-anchor="middle" font-size="11.5" font-weight="bold" fill="#111">COMPLETED: MAY 1, 2026</text>
<text x="600" y="352" text-anchor="middle" font-size="11.5" font-weight="bold" fill="#111">CERTIFICATE ID: 00000000 - XXXX</text>
<text x="290" y="432" text-anchor="middle" font-size="12.5" font-weight="bold" fill="#0e3a47">Andrew Sales</text>
<text x="290" y="447" text-anchor="middle" font-size="10.5" fill="#0e3a47">Chief Methodologist</text>
<text x="452" y="432" text-anchor="middle" font-size="12.5" font-weight="bold" fill="#0e3a47">Steve Matthesen</text>
<text x="452" y="447" text-anchor="middle" font-size="10.5" fill="#0e3a47">Chief Executive Officer</text>
<g transform="translate(590,414) scale(0.95)">
<polygon points="0,26 14,6 22,17 30,2 46,26" fill="#0b3a45"/>
<text x="50" y="24" font-size="26" font-weight="bold" fill="#0b3a45" font-style="italic">SAFe<tspan font-size="12" dy="-10">®</tspan></text>
<text x="50" y="36" font-size="8.5" letter-spacing="0.5" fill="#0b3a45" font-weight="bold">PROVIDED BY SCALED AGILE</text>
</g>
<rect x="193" y="462" width="574" height="12" fill="#7fd4cf"/>
<text x="480" y="490" text-anchor="middle" font-size="8.5" fill="#8a8a8a">*This certificate is for representative purpose only and holds no official or legal value.</text>
</svg>